<svg width="32" height="32" viewBox="0 0 32 32" fill="none" xmlns="http://www.w3.org/2000/svg">
<path fill-rule="evenodd" clip-rule="evenodd" d="M8.52391 18.1274C8.92214 17.0602 9.65212 16.1489 10.6066 15.5273C11.1078 16.0954 11.7242 16.5504 12.4148 16.8619C13.1054 17.1734 13.8544 17.3343 14.612 17.334H13.4986C12.3919 17.334 11.3999 18.0234 11.0119 19.0647L10.6613 20.0007H25.3427C26.0761 20.0007 26.6707 20.5981 26.6707 21.3341C26.6707 22.0701 26.0761 22.6674 25.3427 22.6674H10.6626C8.80791 22.6674 7.5239 20.8074 8.17591 19.0647L8.52391 18.1274ZM12.0039 27.3341C12.0039 27.8646 11.7932 28.3733 11.4182 28.7483C11.0431 29.1234 10.5344 29.3341 10.0039 29.3341C9.47349 29.3341 8.96477 29.1234 8.5897 28.7483C8.21462 28.3733 8.00391 27.8646 8.00391 27.3341C8.00391 26.8037 8.21462 26.295 8.5897 25.9199C8.96477 25.5448 9.47349 25.3341 10.0039 25.3341C10.5344 25.3341 11.0431 25.5448 11.4182 25.9199C11.7932 26.295 12.0039 26.8037 12.0039 27.3341ZM26.6707 27.3341C26.6707 27.8646 26.46 28.3733 26.085 28.7483C25.7099 29.1234 25.2012 29.3341 24.6707 29.3341C24.1403 29.3341 23.6316 29.1234 23.2565 28.7483C22.8814 28.3733 22.6707 27.8646 22.6707 27.3341C22.6707 26.8037 22.8814 26.295 23.2565 25.9199C23.6316 25.5448 24.1403 25.3341 24.6707 25.3341C25.2012 25.3341 25.7099 25.5448 26.085 25.9199C26.46 26.295 26.6707 26.8037 26.6707 27.3341Z" fill="black"/>
<path fill-rule="evenodd" clip-rule="evenodd" d="M2.66406 3.99936C2.66406 3.64574 2.80454 3.30659 3.05459 3.05654C3.30464 2.80649 3.64378 2.66602 3.99741 2.66602H5.80009C6.85343 2.66602 7.81078 3.28602 8.23878 4.25003L8.72012 5.33271H26.6589C27.1005 5.33231 27.5352 5.44155 27.924 5.65061C28.3129 5.85967 28.6438 6.16202 28.887 6.53052C29.1302 6.89901 29.2781 7.32212 29.3174 7.76188C29.3567 8.20164 29.2863 8.64428 29.1123 9.05007L26.947 14.1008C26.535 15.0605 25.8505 15.8782 24.9784 16.4527C24.1062 17.0272 23.0846 17.3332 22.0402 17.3328H14.6055C13.5734 17.3331 12.5633 17.0341 11.6977 16.472C10.832 15.91 10.1479 15.109 9.72813 14.1661L5.80009 5.33271H3.99741C3.64378 5.33271 3.30464 5.19223 3.05459 4.94218C2.80454 4.69213 2.66406 4.35299 2.66406 3.99936ZM9.9068 7.9994L12.1668 13.0821C12.3768 13.5538 12.719 13.9546 13.1521 14.2357C13.5852 14.5169 14.0905 14.6664 14.6068 14.6661H22.0402C23.1069 14.6661 24.0723 14.0301 24.4936 13.0501L26.6589 7.9994H9.9068Z" fill="black"/>
</svg>
