<svg width="16" height="28" viewBox="0 0 16 28" fill="none" xmlns="http://www.w3.org/2000/svg">
<path d="M13.332 9.33366H15.9987C15.9987 5.55099 12.3253 3.82566 9.332 3.42833V0.666992H6.66533V3.42833C3.672 3.82566 -0.00133324 5.55099 -0.00133324 9.33366C-0.00133324 12.9417 3.55333 14.8177 6.66533 15.2403V21.867C4.73467 21.5323 2.66533 20.5017 2.66533 18.667H-0.00133324C-0.00133324 22.119 3.232 24.159 6.66533 24.5817V27.3337H9.332V24.5737C12.3253 24.1763 15.9987 22.4497 15.9987 18.667C15.9987 14.8843 12.3253 13.159 9.332 12.7617V6.13366C11.1053 6.45232 13.332 7.38833 13.332 9.33366ZM2.66533 9.33366C2.66533 7.38833 4.892 6.45232 6.66533 6.13366V12.5323C4.83733 12.195 2.66533 11.1963 2.66533 9.33366ZM13.332 18.667C13.332 20.6123 11.1053 21.5483 9.332 21.867V15.467C11.1053 15.7857 13.332 16.7217 13.332 18.667Z" fill="#ED1C24"/>
</svg>
